<svg id="visual" viewBox="0 0 900 600" width="900" height="600" xmlns="http://www.w3.org/2000/svg" xmlns:xlink="http://www.w3.org/1999/xlink" version="1.1"><rect x="0" y="0" width="900" height="600" fill="#004274"></rect><path d="M0 436L21.5 432.7C43 429.3 86 422.7 128.8 423.3C171.7 424 214.3 432 257.2 433.3C300 434.7 343 429.3 385.8 430.3C428.7 431.3 471.3 438.7 514.2 433.3C557 428 600 410 642.8 401.8C685.7 393.7 728.3 395.3 771.2 394C814 392.7 857 388.3 878.5 386.2L900 384L900 601L878.5 601C857 601 814 601 771.2 601C728.3 601 685.7 601 642.8 601C600 601 557 601 514.2 601C471.3 601 428.7 601 385.8 601C343 601 300 601 257.2 601C214.3 601 171.7 601 128.8 601C86 601 43 601 21.5 601L0 601Z" fill="#fa7268"></path><path d="M0 473L21.5 469.8C43 466.7 86 460.3 128.8 456.2C171.7 452 214.3 450 257.2 445.8C300 441.7 343 435.3 385.8 439.5C428.7 443.7 471.3 458.3 514.2 466.5C557 474.7 600 476.3 642.8 476.8C685.7 477.3 728.3 476.7 771.2 469.7C814 462.7 857 449.3 878.5 442.7L900 436L900 601L878.5 601C857 601 814 601 771.2 601C728.3 601 685.7 601 642.8 601C600 601 557 601 514.2 601C471.3 601 428.7 601 385.8 601C343 601 300 601 257.2 601C214.3 601 171.7 601 128.8 601C86 601 43 601 21.5 601L0 601Z" fill="#ef5f67"></path><path d="M0 489L21.5 488.2C43 487.3 86 485.7 128.8 485.7C171.7 485.7 214.3 487.3 257.2 490C300 492.7 343 496.3 385.8 492C428.7 487.7 471.3 475.3 514.2 473.2C557 471 600 479 642.8 479.3C685.7 479.7 728.3 472.3 771.2 473C814 473.7 857 482.3 878.5 486.7L900 491L900 601L878.5 601C857 601 814 601 771.2 601C728.3 601 685.7 601 642.8 601C600 601 557 601 514.2 601C471.3 601 428.7 601 385.8 601C343 601 300 601 257.2 601C214.3 601 171.7 601 128.8 601C86 601 43 601 21.5 601L0 601Z" fill="#e34c67"></path><path d="M0 542L21.5 536.2C43 530.3 86 518.7 128.8 515.2C171.7 511.7 214.3 516.3 257.2 512.3C300 508.3 343 495.7 385.8 494C428.7 492.3 471.3 501.7 514.2 509.3C557 517 600 523 642.8 520.5C685.7 518 728.3 507 771.2 504.7C814 502.3 857 508.7 878.5 511.8L900 515L900 601L878.5 601C857 601 814 601 771.2 601C728.3 601 685.7 601 642.8 601C600 601 557 601 514.2 601C471.3 601 428.7 601 385.8 601C343 601 300 601 257.2 601C214.3 601 171.7 601 128.8 601C86 601 43 601 21.5 601L0 601Z" fill="#d53867"></path><path d="M0 544L21.5 544.8C43 545.7 86 547.3 128.8 544.3C171.7 541.3 214.3 533.7 257.2 529.8C300 526 343 526 385.8 525.8C428.7 525.7 471.3 525.3 514.2 529.3C557 533.3 600 541.7 642.8 544.7C685.7 547.7 728.3 545.3 771.2 546.2C814 547 857 551 878.5 553L900 555L900 601L878.5 601C857 601 814 601 771.2 601C728.3 601 685.7 601 642.8 601C600 601 557 601 514.2 601C471.3 601 428.7 601 385.8 601C343 601 300 601 257.2 601C214.3 601 171.7 601 128.8 601C86 601 43 601 21.5 601L0 601Z" fill="#c62368"></path></svg>