<svg id="visual" viewBox="0 0 900 600" width="900" height="600" xmlns="http://www.w3.org/2000/svg" xmlns:xlink="http://www.w3.org/1999/xlink" version="1.1"><rect x="0" y="0" width="900" height="600" fill="#001220"></rect><g fill="#A7233A"><circle r="66" cx="40" cy="157"></circle><circle r="9" cx="375" cy="441"></circle><circle r="50" cx="879" cy="443"></circle><circle r="44" cx="705" cy="562"></circle><circle r="62" cx="163" cy="428"></circle><circle r="59" cx="783" cy="43"></circle><circle r="50" cx="225" cy="214"></circle><circle r="23" cx="31" cy="531"></circle><circle r="46" cx="710" cy="322"></circle><circle r="62" cx="215" cy="83"></circle><circle r="15" cx="569" cy="265"></circle><circle r="31" cx="564" cy="60"></circle><circle r="45" cx="368" cy="267"></circle><circle r="56" cx="415" cy="4"></circle><circle r="19" cx="35" cy="327"></circle><circle r="55" cx="561" cy="474"></circle><circle r="61" cx="479" cy="579"></circle><circle r="42" cx="280" cy="598"></circle><circle r="63" cx="724" cy="169"></circle><circle r="45" cx="896" cy="159"></circle><circle r="36" cx="850" cy="593"></circle><circle r="10" cx="14" cy="4"></circle><circle r="56" cx="889" cy="292"></circle><circle r="35" cx="361" cy="131"></circle></g></svg>